<svg width="43" height="50" viewBox="0 0 43 50" fill="none" xmlns="http://www.w3.org/2000/svg">
<rect width="43" height="50" fill="#1E1E1E"/>
<g id=" 9- &#216;&#167;&#217;&#132;&#217;&#132;&#217;&#136;&#216;&#167;&#216;&#166;&#216;&#173; &#217;&#136;&#216;&#167;&#217;&#132;&#216;&#179;&#217;&#138;&#216;&#167;&#216;&#179;&#216;&#167;&#216;&#170;" clip-path="url(#clip0_0_1)">
<rect width="1920" height="2904" transform="translate(-1655 -1023)" fill="white"/>
<g id="Group 1686551200">
<rect id="Rectangle 9376" x="-1515" y="-154" width="1640" height="563" rx="18" fill="#F4FAFF"/>
</g>
<g id="Group 1686551201">
<rect id="Rectangle 9761" x="-1470" y="-35" width="1549" height="120" rx="15" fill="white"/>
<g id="Frame 1686551195">
<g id="Group 1000001092">
<path id="Path 106" d="M33.7549 26.6262C30.8903 25.1868 26.1525 25.7534 21.4511 27.1499C22.1303 24.6173 22.528 22.0166 22.6371 19.3956C22.7385 18.5697 22.6645 17.7315 22.4199 16.9365C22.1754 16.1416 21.7659 15.408 21.2186 14.7845C20.6713 14.1609 19.9987 13.6616 19.2453 13.3197C18.4919 12.9777 17.6749 12.8008 16.8486 12.8008C16.0222 12.8008 15.2052 12.9777 14.4519 13.3197C13.6985 13.6616 13.0258 14.1609 12.4785 14.7845C11.9312 15.408 11.5217 16.1416 11.2772 16.9365C11.0326 17.7315 10.9586 18.5697 11.0601 19.3956C11.0601 22.3295 13.134 25.3644 17.361 28.5831C13.9968 29.7725 10.8598 31.5334 8.08598 33.7894C6.97906 34.8803 6.33033 36.3575 6.27374 37.9162C6.21715 39.4749 6.75702 40.9959 7.78188 42.1653C8.17294 42.5609 8.63785 42.8747 9.14983 43.0887C9.66182 43.3026 10.2108 43.4124 10.7651 43.4118C11.6436 43.3553 12.5021 43.1231 13.2906 42.7287C14.079 42.3343 14.7814 41.7857 15.357 41.1149C17.7458 38.0321 19.4806 34.488 20.4537 30.7024C22.408 31.9458 24.6776 33.2177 27.2624 34.5182C28.8532 35.4354 30.704 35.7871 32.5172 35.5166C33.2163 35.3858 33.8756 35.0934 34.4434 34.6624C35.0112 34.2314 35.4719 33.6737 35.7893 33.0329C36.3591 31.9109 36.465 30.6075 36.0838 29.4071C35.7026 28.2068 34.8654 27.2071 33.7549 26.6262ZM13.2131 38.9528C12.5623 39.6081 10.9506 41.0138 9.93793 40.0032C9.48401 39.4099 9.26395 38.6685 9.32009 37.9217C9.37623 37.1749 9.7046 36.4753 10.242 35.9576C12.2118 34.3296 14.4272 33.0289 16.8045 32.105C16.0405 34.592 14.8237 36.9141 13.2161 38.9528H13.2131ZM18.6868 25.7626C15.0742 22.9297 14.1041 20.8319 14.1041 19.3956C14.1041 16.8905 15.4847 15.7666 16.841 15.7666C18.1972 15.7666 19.5779 16.8905 19.5779 19.3956C19.5054 21.5437 19.2068 23.678 18.6868 25.7626ZM33.0798 31.6701C32.9673 31.8948 32.8032 32.0892 32.6012 32.2373C32.3992 32.3853 32.165 32.4828 31.9182 32.5215C30.7715 32.6474 29.6158 32.388 28.6309 31.7834C27.0648 30.9964 25.6598 30.2522 24.4039 29.5233C26.9889 28.6483 29.7782 28.5927 32.3956 29.3641C32.5905 29.4611 32.7624 29.599 32.8998 29.7686C33.0373 29.9381 33.137 30.1354 33.1923 30.3471C33.3164 30.7872 33.2764 31.2577 33.0798 31.6701ZM42.4552 16.7558C42.379 16.5703 42.2674 16.4017 42.1267 16.2596L26.9218 0.947125C26.7807 0.805431 26.6133 0.69305 26.4292 0.616375C26.245 0.53962 26.0477 0.500079 25.8484 0.5H7.60246C5.58616 0.5 3.65245 1.30664 2.22671 2.74246C0.800971 4.17829 0 6.12569 0 8.15625V41.8438C0 43.8743 0.800971 45.8217 2.22671 47.2575C3.65245 48.6934 5.58616 49.5 7.60246 49.5H34.9713C36.9876 49.5 38.9213 48.6934 40.3471 47.2575C41.7728 45.8217 42.5738 43.8743 42.5738 41.8438V17.3438C42.5731 17.1418 42.5328 16.942 42.4552 16.7558ZM27.3689 5.72769L37.3828 15.8125H31.9303C30.7205 15.8125 29.5603 15.3285 28.7049 14.467C27.8494 13.6055 27.3689 12.4371 27.3689 11.2188V5.72769ZM34.9713 46.4375H7.60246C6.39268 46.4375 5.23245 45.9535 4.37701 45.092C3.52157 44.2305 3.04098 43.0621 3.04098 41.8438V8.15625C3.04098 6.93791 3.52157 5.76947 4.37701 4.90798C5.23245 4.04648 6.39268 3.5625 7.60246 3.5625H24.3279V11.2188C24.3279 13.2493 25.1288 15.1967 26.5546 16.6325C27.9803 18.0684 29.914 18.875 31.9303 18.875H39.5328V41.8438C39.5328 43.0621 39.0522 44.2305 38.1968 45.092C37.3413 45.9535 36.1811 46.4375 34.9713 46.4375Z" fill="#87BD41"/>
</g>
</g>
</g>
</g>
<defs>
<clipPath id="clip0_0_1">
<rect width="1920" height="2904" fill="white" transform="translate(-1655 -1023)"/>
</clipPath>
</defs>
</svg>
